<svg width="600" height="400" xmlns="http://www.w3.org/2000/svg">
    <rect width="100%" height="100%" fill="white" />
    <text x="300" y="30" text-anchor="middle" font-family="Arial" font-size="20" font-weight="bold">CPU Usage Accuracy Comparison</text>
    
    <rect x="440" y="50" width="15" height="15" fill="#4a90e2" />
    <text x="460" y="62" font-family="Arial" font-size="12">System Reading</text>
    <rect x="440" y="75" width="15" height="15" fill="#e24a4a" />
    <text x="460" y="87" font-family="Arial" font-size="12">Task Manager</text>

    <line x1="60" y1="340" x2="60" y2="60" stroke="black" stroke-width="2" />
    <line x1="60" y1="340" x2="540" y2="340" stroke="black" stroke-width="2" />
<text x="50" y="345" text-anchor="end" font-family="Arial" font-size="12">0%</text><line x1="60" y1="340" x2="540" y2="340" stroke="#e0e0e0" stroke-width="1" /><text x="50" y="298.3333333333333" text-anchor="end" font-family="Arial" font-size="12">10%</text><line x1="60" y1="293.3333333333333" x2="540" y2="293.3333333333333" stroke="#e0e0e0" stroke-width="1" /><text x="50" y="251.66666666666669" text-anchor="end" font-family="Arial" font-size="12">20%</text><line x1="60" y1="246.66666666666669" x2="540" y2="246.66666666666669" stroke="#e0e0e0" stroke-width="1" /><text x="50" y="205" text-anchor="end" font-family="Arial" font-size="12">30%</text><line x1="60" y1="200" x2="540" y2="200" stroke="#e0e0e0" stroke-width="1" /><text x="50" y="158.33333333333334" text-anchor="end" font-family="Arial" font-size="12">40%</text><line x1="60" y1="153.33333333333334" x2="540" y2="153.33333333333334" stroke="#e0e0e0" stroke-width="1" /><text x="50" y="111.66666666666666" text-anchor="end" font-family="Arial" font-size="12">50%</text><line x1="60" y1="106.66666666666666" x2="540" y2="106.66666666666666" stroke="#e0e0e0" stroke-width="1" /><text x="50" y="65" text-anchor="end" font-family="Arial" font-size="12">60%</text><line x1="60" y1="60" x2="540" y2="60" stroke="#e0e0e0" stroke-width="1" /><rect x="260" y="130.93333333333337" width="40" height="209.06666666666663" fill="#4a90e2" /><text x="280" y="125.93333333333337" text-anchor="middle" font-family="Arial" font-size="12">44.8%</text><rect x="310" y="129.06666666666663" width="40" height="210.93333333333337" fill="#e24a4a" /><text x="330" y="124.06666666666663" text-anchor="middle" font-family="Arial" font-size="12">45.2%</text><text x="300" y="360" text-anchor="middle" font-family="Arial" font-size="14">Average CPU Usage</text><text x="15" y="200" text-anchor="middle" font-family="Arial" font-size="14" transform="rotate(-90 15,200)">Usage (%)</text></svg>