<svg width="800" height="500" xmlns="http://www.w3.org/2000/svg">
    <!-- Background -->
    <rect width="100%" height="100%" fill="white" />
    
    <!-- Title -->
    <text x="400" y="30" text-anchor="middle" font-family="Arial" font-size="20" font-weight="bold">Data Transmission Latency (ms)</text>
    
    <!-- Y Axis -->
    <line x1="60" y1="440" x2="60" y2="60" stroke="black" stroke-width="2" />
    
    <!-- X Axis -->
    <line x1="60" y1="440" x2="740" y2="440" stroke="black" stroke-width="2" />
<text x="50" y="445" text-anchor="end" font-family="Arial" font-size="12">0</text><line x1="60" y1="440" x2="740" y2="440" stroke="#e0e0e0" stroke-width="1" /><text x="50" y="369" text-anchor="end" font-family="Arial" font-size="12">50</text><line x1="60" y1="364" x2="740" y2="364" stroke="#e0e0e0" stroke-width="1" /><text x="50" y="293" text-anchor="end" font-family="Arial" font-size="12">100</text><line x1="60" y1="288" x2="740" y2="288" stroke="#e0e0e0" stroke-width="1" /><text x="50" y="217" text-anchor="end" font-family="Arial" font-size="12">150</text><line x1="60" y1="212" x2="740" y2="212" stroke="#e0e0e0" stroke-width="1" /><text x="50" y="141" text-anchor="end" font-family="Arial" font-size="12">200</text><line x1="60" y1="136" x2="740" y2="136" stroke="#e0e0e0" stroke-width="1" /><text x="50" y="65" text-anchor="end" font-family="Arial" font-size="12">250</text><line x1="60" y1="60" x2="740" y2="60" stroke="#e0e0e0" stroke-width="1" /><rect x="80" y="107.12" width="40" height="332.88" fill="#4a90e2" /><text x="100" y="102.12" text-anchor="middle" font-family="Arial" font-size="12">219</text><text x="100" y="460" text-anchor="middle" font-family="Arial" font-size="12">T1</text><rect x="140" y="102.56" width="40" height="337.44" fill="#4a90e2" /><text x="160" y="97.56" text-anchor="middle" font-family="Arial" font-size="12">222</text><text x="160" y="460" text-anchor="middle" font-family="Arial" font-size="12">T2</text><rect x="200" y="101.04000000000002" width="40" height="338.96" fill="#4a90e2" /><text x="220" y="96.04000000000002" text-anchor="middle" font-family="Arial" font-size="12">223</text><text x="220" y="460" text-anchor="middle" font-family="Arial" font-size="12">T3</text><rect x="260" y="110.16000000000003" width="40" height="329.84" fill="#4a90e2" /><text x="280" y="105.16000000000003" text-anchor="middle" font-family="Arial" font-size="12">217</text><text x="280" y="460" text-anchor="middle" font-family="Arial" font-size="12">T4</text><rect x="320" y="102.56" width="40" height="337.44" fill="#4a90e2" /><text x="340" y="97.56" text-anchor="middle" font-family="Arial" font-size="12">222</text><text x="340" y="460" text-anchor="middle" font-family="Arial" font-size="12">T5</text><rect x="380" y="85.83999999999997" width="40" height="354.16" fill="#4a90e2" /><text x="400" y="80.83999999999997" text-anchor="middle" font-family="Arial" font-size="12">233</text><text x="400" y="460" text-anchor="middle" font-family="Arial" font-size="12">T6</text><rect x="440" y="102.56" width="40" height="337.44" fill="#4a90e2" /><text x="460" y="97.56" text-anchor="middle" font-family="Arial" font-size="12">222</text><text x="460" y="460" text-anchor="middle" font-family="Arial" font-size="12">T7</text><rect x="500" y="116.24000000000001" width="40" height="323.76" fill="#4a90e2" /><text x="520" y="111.24000000000001" text-anchor="middle" font-family="Arial" font-size="12">213</text><text x="520" y="460" text-anchor="middle" font-family="Arial" font-size="12">T8</text><rect x="560" y="102.56" width="40" height="337.44" fill="#4a90e2" /><text x="580" y="97.56" text-anchor="middle" font-family="Arial" font-size="12">222</text><text x="580" y="460" text-anchor="middle" font-family="Arial" font-size="12">T9</text><rect x="620" y="102.56" width="40" height="337.44" fill="#4a90e2" /><text x="640" y="97.56" text-anchor="middle" font-family="Arial" font-size="12">222</text><text x="640" y="460" text-anchor="middle" font-family="Arial" font-size="12">T10</text><text x="400" y="490" text-anchor="middle" font-family="Arial" font-size="14">Test Iteration</text><text x="15" y="250" text-anchor="middle" font-family="Arial" font-size="14" transform="rotate(-90 15,250)">Latency (ms)</text></svg>